<?xml version="1.0" encoding="UTF-8"?>
<svg version="1.1" xmlns="http://www.w3.org/2000/svg" width="512" height="512">
<path d="M0 0 C2.7146677 1.05202754 5.17882065 2.40393047 7.6875 3.875 C8.37666504 4.27211182 9.06583008 4.66922363 9.77587891 5.07836914 C16.86496159 9.29930602 22.97477007 14.39669923 29 20 C29.87140625 20.79019531 30.7428125 21.58039063 31.640625 22.39453125 C46.72664197 36.69778319 57.77804392 55.61474946 65 75 C69.10459114 75 71.7257112 74.20235029 75.625 73 C99.31543727 66.54382861 123.95561413 71.19501739 145 83 C163.71957117 94.27483123 178.92594458 113.14239939 184.63720703 134.36816406 C185.90799664 139.54992692 186.99035292 144.76171341 188 150 C188.21914063 148.76507813 188.43828125 147.53015625 188.6640625 146.2578125 C193.32428573 120.9526241 201.46205722 94.08242383 223 77.9375 C233.97634664 71.02136936 245.36620344 69.04637839 258.08203125 71.625 C274.48377216 76.88106576 285.25386157 90.54955751 292.8762207 105.30517578 C302.79082613 125.47235928 307.25503052 148.18452953 307.0625 170.5625 C307.05798828 171.57119141 307.05347656 172.57988281 307.04882812 173.61914062 C307.03716769 176.07949147 307.02080378 178.53971239 307 181 C307.67936615 180.99333817 308.3587323 180.98667633 309.0586853 180.97981262 C316.16456341 180.91315955 323.27035189 180.86807534 330.37646484 180.83520508 C333.02428803 180.82016981 335.67208653 180.79973624 338.31982422 180.77368164 C342.13775752 180.73706739 345.95535993 180.72022034 349.7734375 180.70703125 C350.94675629 180.69154739 352.12007507 180.67606354 353.32894897 180.66011047 C369.22607498 180.65689541 369.22607498 180.65689541 374.96981812 185.74494934 C382.60046929 194.15352076 380.47618757 206.13684576 380.17480469 216.80908203 C378.6722742 244.23655886 360.12055746 268.3609728 340.80957031 286.38134766 C329.96303623 296.08352264 317.56357001 303.7508173 305 311 C304.34016113 311.38752441 303.68032227 311.77504883 303.00048828 312.17431641 C285.63282722 322.28974031 266.40858701 329.23849356 247.25 335.125 C246.32880371 335.40811035 245.40760742 335.6912207 244.45849609 335.98291016 C239.29717399 337.50342588 234.35751008 338.48916764 229 339 C229.05800781 340.27875 229.11601562 341.5575 229.17578125 342.875 C229.22271247 344.58329656 229.268209 346.29163295 229.3125 348 C229.35439453 348.83917969 229.39628906 349.67835938 229.43945312 350.54296875 C229.56278229 356.90675341 228.14243912 361.11578374 224 366 C218.77375804 370.07646873 215.07696165 371.12353718 208.54292297 371.14717102 C207.88446874 371.15084771 207.22601451 371.1545244 206.54760712 371.1583125 C204.33682461 371.16934297 202.12608911 371.1731921 199.9152832 371.17700195 C198.33178051 371.18326715 196.74827928 371.189914 195.16477966 371.19691467 C189.96012393 371.21795292 184.75546792 371.22831765 179.55078125 371.23828125 C177.75831779 371.24232906 175.96585449 371.24644599 174.17339134 371.25063133 C165.7510819 371.26968342 157.32878123 371.28391375 148.90645438 371.2922433 C139.18904453 371.30201261 129.47186265 371.32832401 119.75453311 371.36874419 C112.24103202 371.39892307 104.72759621 371.41371391 97.21403569 371.41702431 C92.7278823 371.41937302 88.24197246 371.42830986 83.75588417 371.45348549 C79.53280932 371.47680194 75.31013774 371.4809852 71.08701515 371.47072411 C69.5406917 371.47022948 67.99434816 371.47652832 66.44808578 371.49028015 C58.43275881 371.5575516 51.84925106 371.60238898 45 367 C41.09221858 362.88654587 38.72725032 359.18347608 38.8046875 353.453125 C38.81435547 352.18662109 38.81435547 352.18662109 38.82421875 350.89453125 C38.84935547 349.58548828 38.84935547 349.58548828 38.875 348.25 C38.88402344 347.36183594 38.89304688 346.47367187 38.90234375 345.55859375 C38.92585423 343.37211942 38.95871501 341.18619906 39 339 C37.95585937 338.91492188 36.91171875 338.82984375 35.8359375 338.7421875 C29.57277011 337.94865161 23.63565454 335.99782446 17.625 334.125 C16.99294647 333.92814606 16.36089294 333.73129211 15.70968628 333.5284729 C-12.61985051 324.64029651 -39.32656727 312.02327809 -63 294 C-64.00160156 293.24203125 -65.00320312 292.4840625 -66.03515625 291.703125 C-88.66615827 273.85882413 -107.7314647 249.20603247 -112 220 C-112.31125875 215.78744995 -112.36992443 211.59787434 -112.375 207.375 C-112.41173828 205.75464844 -112.41173828 205.75464844 -112.44921875 204.1015625 C-112.4731856 197.55062268 -111.94720285 192.38878998 -108 187 C-106.03515625 185.16015625 -106.03515625 185.16015625 -104.0625 184.0625 C-103.08990234 183.49208984 -103.08990234 183.49208984 -102.09765625 182.91015625 C-99.75338843 181.89299721 -97.5054807 181.46866407 -95 181 C-93.04168739 168.91396129 -91.4495312 156.79594827 -90.02734375 144.63671875 C-89.94252369 143.91322361 -89.85770363 143.18972847 -89.77031326 142.44430923 C-88.97439325 135.64867834 -88.18651365 128.85212469 -87.40405273 122.05493164 C-86.97107903 118.2965587 -86.53243552 114.53888148 -86.09039497 110.78156471 C-85.92514556 109.36694566 -85.7620754 107.95207011 -85.60133171 106.53693199 C-85.37746889 104.56657283 -85.14578964 102.59710656 -84.91381836 100.62768555 C-84.78518906 99.51330612 -84.65655975 98.3989267 -84.52403259 97.2507782 C-83.05599991 88.1439999 -83.05599991 88.1439999 -79.75 84.5625 C-76.40717539 82.66316783 -74.79056885 82.38113162 -71 83 C-66.05489505 86.00570778 -61.61574844 89.61214564 -57.125 93.25 C-56.43664062 93.80429688 -55.74828125 94.35859375 -55.0390625 94.9296875 C-53.35757119 96.28422217 -51.67853133 97.64179907 -50 99 C-50.02320313 97.9584375 -50.04640625 96.916875 -50.0703125 95.84375 C-50.65473261 58.80285421 -37.32099013 29.17546165 -12.25 2.265625 C-8.32264152 -1.6890068 -5.19354141 -1.17471581 0 0 Z M186 176 C186 177.65 186 179.3 186 181 C186.33 181 186.66 181 187 181 C187 179.35 187 177.7 187 176 C186.67 176 186.34 176 186 176 Z " fill="#294368" transform="translate(122,71)"/>
<path d="M0 0 C152.46 0 304.92 0 462 0 C451.71560892 34.28130359 424.77735922 57.41789313 394.12792969 74.01367188 C389.48319175 76.48156474 384.76567927 78.77580481 380 81 C379.24041992 81.35562012 378.48083984 81.71124023 377.69824219 82.07763672 C357.46434437 91.42683675 335.91138477 98.77893814 314 103 C312.43765625 103.30115723 312.43765625 103.30115723 310.84375 103.60839844 C284.33507 108.64534349 258.47363348 111.22318465 231.5 111.1875 C230.57736359 111.18656342 229.65472717 111.18562683 228.70413208 111.18466187 C214.05372472 111.15255632 199.55406937 110.82036326 185 109 C183.75025391 108.84402344 182.50050781 108.68804687 181.21289062 108.52734375 C134.20924549 102.51065462 85.735906 89.40997337 47 61 C46.47067871 60.61585938 45.94135742 60.23171875 45.39599609 59.8359375 C25.27435031 45.10515566 8.45815863 26.86263112 0 3 C0 2.01 0 1.02 0 0 Z " fill="#F2A28C" transform="translate(25,298)"/>
<path d="M0 0 C0.78205686 -0.00551417 1.56411371 -0.01102833 2.36986926 -0.0167096 C5.00648047 -0.03037114 7.64215972 -0.01537227 10.27875423 -0.00063419 C12.18160558 -0.00452467 14.08445403 -0.01016308 15.98729557 -0.01740509 C21.22869457 -0.03221394 26.46979482 -0.02194635 31.71118438 -0.00766838 C37.35881963 0.00340667 43.00641177 -0.00848963 48.65404415 -0.01751041 C59.72240073 -0.03146831 70.79064348 -0.02386802 81.85899467 -0.00883483 C94.73799973 0.00799426 107.61697619 0.00481896 120.49598884 0.00107109 C144.16323033 -0.00498997 167.83040091 0.01081303 191.49762518 0.03625872 C213.11494914 0.05937729 234.73220622 0.06476128 256.34953976 0.05452633 C261.88523544 0.05192443 267.42093112 0.04933946 272.95662689 0.04692841 C273.6380819 0.04663096 274.31953691 0.04633351 275.02164207 0.04602705 C293.07203274 0.03841703 311.12241545 0.04487898 329.1728043 0.05562443 C331.75913552 0.05715033 334.34546675 0.05867068 336.93179798 0.06018543 C338.8407771 0.06132215 338.8407771 0.06132215 340.78832145 0.06248184 C349.77432981 0.06723261 358.76032308 0.06536764 367.74633121 0.06112003 C378.6903836 0.05620313 389.6343667 0.06213407 400.57840318 0.08201433 C406.16654626 0.09191392 411.75458364 0.09696278 417.34273243 0.08912182 C422.45182818 0.08209947 427.56070999 0.08878832 432.66977739 0.10672545 C434.52433819 0.11079242 436.37891828 0.10973279 438.23347206 0.10320658 C440.74224275 0.09512947 443.25027969 0.10527835 445.75900269 0.12025452 C446.4895815 0.11351687 447.22016032 0.10677921 447.97287789 0.09983739 C450.90383124 0.1339909 452.84377716 0.16108534 455.26665157 1.90077537 C456.61611769 3.95698101 456.67598118 5.24615676 456.64470577 7.69588375 C456.63954952 8.49381344 456.63439327 9.29174313 456.62908077 10.1138525 C456.60845577 10.94271969 456.58783077 11.77158688 456.56658077 12.62557125 C456.56142452 13.46217281 456.55626827 14.29877438 456.55095577 15.1607275 C456.47075257 21.34639945 456.47075257 21.34639945 455.31658077 22.50057125 C452.84149512 22.60029629 450.39427072 22.63419511 447.91863155 22.62641239 C446.73717698 22.62859255 446.73717698 22.62859255 445.53185463 22.63081676 C442.85851539 22.63450356 440.18523222 22.63097803 437.51189327 22.62755489 C435.58958564 22.62870566 433.66727822 22.63029287 431.74497128 22.63228214 C426.43602193 22.63648164 421.12709042 22.63438199 415.81814098 22.63129592 C410.10302003 22.62904455 404.38790227 22.63252011 398.67278194 22.63527584 C387.46635796 22.63973536 376.25994064 22.63875627 365.05351639 22.6358632 C355.95028599 22.63360988 346.84705747 22.63329633 337.74382687 22.63438702 C336.45093274 22.63454025 335.15803862 22.63469348 333.82596588 22.63485136 C331.19993114 22.63517107 328.57389641 22.63549528 325.94786167 22.63582395 C301.9951556 22.63859779 278.04245315 22.63571541 254.08974767 22.63048135 C232.20441925 22.62573543 210.31909664 22.62616005 188.43376827 22.63094234 C163.8689632 22.63629215 139.30416165 22.63840458 114.73935604 22.63533008 C112.12268225 22.63501151 109.50600847 22.63469714 106.88933468 22.63438702 C105.60169499 22.63423274 104.31405531 22.63407847 102.98739624 22.63391951 C93.88927857 22.63305409 84.79116296 22.63451779 75.69304562 22.63686657 C64.61384319 22.63966377 53.53464785 22.63892802 42.45544624 22.63358583 C36.79671685 22.63094772 31.1379993 22.62994558 25.47926998 22.63323498 C20.30793405 22.63619571 15.13662104 22.63460888 9.96528721 22.62925743 C8.08576957 22.62813228 6.20625003 22.62872655 4.32673359 22.63113321 C1.78930411 22.63413526 -0.74804487 22.63109475 -3.28547001 22.62641239 C-4.03018212 22.62875356 -4.77489424 22.63109472 -5.54217339 22.63350683 C-10.56926889 22.61472159 -10.56926889 22.61472159 -11.68341923 21.50057125 C-11.86403505 18.71435011 -11.96155021 15.97654455 -11.99591923 13.18807125 C-12.03942509 12.0288818 -12.03942509 12.0288818 -12.08380985 10.84627438 C-12.09218876 10.09668453 -12.10056767 9.34709469 -12.10920048 8.57479 C-12.123783 7.88989498 -12.13836552 7.20499996 -12.15338993 6.49935055 C-10.67318045 0.20403887 -5.51762101 -0.07311881 0 0 Z " fill="#F4D9C4" transform="translate(33.6834192276001,264.4994287490845)"/>
<path d="M0 0 C11.02820657 7.51563576 19.93219417 18.21240096 22.90576172 31.54052734 C23.58038685 35.87056811 23.63138789 40.18754837 23.625 44.5625 C23.62584595 46.01692505 23.62584595 46.01692505 23.62670898 47.50073242 C23.52374007 54.19708773 23.32173372 62.67826628 18.25 67.75 C16.5007128 67.84365006 14.74763746 67.86744438 12.99584961 67.86352539 C11.87476303 67.86344986 10.75367645 67.86337433 9.59861755 67.86329651 C7.76896202 67.85555458 7.76896202 67.85555458 5.90234375 67.84765625 C4.66078018 67.8462413 3.41921661 67.84482635 2.14002991 67.84336853 C-1.16605491 67.83870591 -4.47207146 67.82971497 -7.77813721 67.81866455 C-11.1496115 67.80844827 -14.52109283 67.80387045 -17.89257812 67.79882812 C-24.51173775 67.78777395 -31.13086493 67.77101736 -37.75 67.75 C-37.11227661 67.05511475 -37.11227661 67.05511475 -36.46166992 66.34619141 C-35.91099854 65.72921387 -35.36032715 65.11223633 -34.79296875 64.4765625 C-34.24406982 63.86893066 -33.6951709 63.26129883 -33.12963867 62.63525391 C-31.45939278 60.63628979 -31.45939278 60.63628979 -31.0625 57.125 C-31.95381562 52.74945061 -33.07396509 51.277274 -36.75 48.75 C-39.5896402 48.04581503 -41.90885263 48.05829209 -44.75 48.75 C-48 50.5 -48 50.5 -49.75 53.75 C-50.12944732 56.97822107 -49.92419251 59.71580342 -48.75 62.75 C-47.1 64.4 -45.45 66.05 -43.75 67.75 C-53.98 67.75 -64.21 67.75 -74.75 67.75 C-79.65488763 54.26155902 -83.113419 39.14911038 -77.078125 25.3359375 C-76.63984375 24.48257813 -76.2015625 23.62921875 -75.75 22.75 C-74.96882812 21.22246094 -74.96882812 21.22246094 -74.171875 19.6640625 C-68.30805716 8.96655698 -61.39439806 2.64895311 -50.75 -3.25 C-49.96496094 -3.68828125 -49.17992187 -4.1265625 -48.37109375 -4.578125 C-33.23918317 -11.47613881 -13.75950434 -8.18082095 0 0 Z " fill="#E57086" transform="translate(248.75,185.25)"/>
<path d="M0 0 C9.84262566 4.73203157 15.12330445 15.11114779 18.71630859 24.96435547 C24.41739928 41.72643489 25 56.98521231 25 75 C5.53 75 -13.94 75 -34 75 C-34 48.71962617 -34 48.71962617 -31 37 C-30.80664062 36.00484375 -30.61328125 35.0096875 -30.4140625 33.984375 C-27.88245156 21.68797902 -22.12007585 8.81573933 -12 1 C-8.28344153 -0.85827924 -4.0562833 -0.43817875 0 0 Z " fill="#D3A13E" transform="translate(373,178)"/>
<path d="M0 0 C1.07765625 0.36351562 2.1553125 0.72703125 3.265625 1.1015625 C23.18793163 8.28285907 37.91855746 21.13520205 47.8125 39.875 C55.85724354 57.08700944 58.17978588 76.4225453 53 95 C52 96 52 96 48.83984375 96.09765625 C47.55207031 96.08605469 46.26429688 96.07445312 44.9375 96.0625 C43.00197266 96.04896484 43.00197266 96.04896484 41.02734375 96.03515625 C40.02832031 96.02355469 39.02929688 96.01195312 38 96 C38.21221191 95.34515625 38.42442383 94.6903125 38.64306641 94.015625 C40.79284093 86.88245399 41.46091148 80.42657008 41.375 73 C41.39240234 71.49566406 41.39240234 71.49566406 41.41015625 69.9609375 C41.3453722 53.24665265 34.53695192 38.34362967 22.8203125 26.625 C10.3001698 14.97190319 -4.35938601 9.63176984 -21.3125 9.6875 C-22.28123047 9.67138672 -23.24996094 9.65527344 -24.24804688 9.63867188 C-40.73830662 9.62767103 -55.34447548 16.63377959 -67.0859375 28.0234375 C-82.76403854 44.66264818 -84.69064296 62.18766183 -85 84 C-86.96945254 82.5339063 -88.93415635 81.0626626 -90.8894043 79.57763672 C-92.54440049 78.34055339 -94.24340017 77.16230636 -95.95703125 76.0078125 C-98 74 -98 74 -98.69921875 71.1796875 C-98.62618624 50.58451864 -89.10367648 33.54199914 -75 19 C-74.44957031 18.37609375 -73.89914063 17.7521875 -73.33203125 17.109375 C-55.85090877 -2.05511483 -24.12679772 -8.33107656 0 0 Z " fill="#709638" transform="translate(242,157)"/>
<path d="M0 0 C18.3406682 23.48852302 28.75694705 62.93151521 26.37402344 92.54785156 C25.59586169 97.6495856 23.35828396 101.75937992 20.890625 106.23828125 C17.27595784 112.93636903 15.82418408 120.6612318 14 128 C8.93312934 125.58760194 4.33547321 122.92059023 1.92382812 117.64648438 C1.06276691 114.86507081 0.37771183 112.09312394 -0.25 109.25 C-0.49322998 108.23518555 -0.73645996 107.22037109 -0.98706055 106.17480469 C-5.11411666 88.5257905 -7.24366167 71.13876441 -7.3125 53 C-7.31545074 52.31034149 -7.31840149 51.62068298 -7.32144165 50.91012573 C-7.33799867 33.71676935 -5.91403682 16.25089199 0 0 Z " fill="#99DE47" transform="translate(118,92)"/>
<path d="M0 0 C4.36290315 2.79539304 8.33210701 5.85528544 12.25 9.25 C16.9462685 13.27212458 21.69807744 17.19992895 26.54296875 21.04296875 C31.06784881 24.64704651 35.52793103 28.3307709 40 32 C42.75468656 34.25454489 45.5100701 36.50823529 48.265625 38.76171875 C50.04827624 40.22094612 51.82959275 41.68180602 53.609375 43.14453125 C57.72651841 46.52473035 61.85288276 49.88999188 66.02734375 53.19921875 C66.71602539 53.74602295 67.40470703 54.29282715 68.11425781 54.85620117 C69.48257061 55.94108696 70.85297524 57.02334031 72.22558594 58.1027832 C73.8351569 59.37936111 75.42023002 60.68672294 77 62 C77 62.33 77 62.66 77 63 C48.95 63 20.9 63 -8 63 C-8 57.40406903 -7.78307029 52.34021239 -6.9765625 46.87109375 C-6.87032562 46.11893082 -6.76408875 45.36676788 -6.65463257 44.59181213 C-6.31660658 42.20626819 -5.9710625 39.82188998 -5.625 37.4375 C-5.28903376 35.08646456 -4.95463232 32.73520997 -4.62030029 30.38394165 C-4.40030123 28.83950929 -4.17932063 27.2952164 -3.95733643 25.75106812 C-3.06289549 19.51557277 -2.23937964 13.27238934 -1.44287109 7.02368164 C-1.09001801 4.61459375 -0.65439004 2.34075823 0 0 Z " fill="#D75D69" transform="translate(75,190)"/>
<path d="M0 0 C152.46 0 304.92 0 462 0 C462 0.33 462 0.66 462 1 C317.46 1 172.92 1 24 1 C38.91727321 34.56386473 59.18818315 56.89515749 91 75 C91.65323242 75.37447266 92.30646484 75.74894531 92.97949219 76.13476562 C115.36942603 88.81928076 139.2595419 97.24403115 164 104 C164 104.33 164 104.66 164 105 C155.29419023 104.55210952 147.18156032 103.11398169 138.75 100.9375 C137.53707275 100.62804443 136.32414551 100.31858887 135.07446289 99.99975586 C103.93997062 91.87744947 73.13281301 80.16652012 47 61 C46.47067871 60.61585938 45.94135742 60.23171875 45.39599609 59.8359375 C25.27435031 45.10515566 8.45815863 26.86263112 0 3 C0 2.01 0 1.02 0 0 Z " fill="#BB7F74" transform="translate(25,298)"/>
<path d="M0 0 C0.54076172 0.07516846 1.08152344 0.15033691 1.63867188 0.2277832 C12.56506468 1.74241205 23.49626864 3.22130893 34.4375 4.625 C35.36949219 4.74786377 36.30148438 4.87072754 37.26171875 4.99731445 C51.9976216 6.86374209 66.72759407 7.2715281 81.5625 7.3125 C82.51121979 7.31545074 83.45993958 7.31840149 84.43740845 7.32144165 C98.27652209 7.33112168 111.93050021 6.69788646 125.6875 5.1875 C126.82700607 5.06334213 126.82700607 5.06334213 127.98953247 4.93667603 C136.82804408 3.94939483 145.57762388 2.64857893 154.30973816 0.95561218 C158.26453524 0.20942577 161.97690534 -0.13640921 166 0 C166.13592021 1.89382164 166.2324094 3.79049704 166.3125 5.6875 C166.39951172 7.27111328 166.39951172 7.27111328 166.48828125 8.88671875 C165.82858887 13.09291736 164.264926 14.33693876 161 17 C157.9624176 17.6292057 157.9624176 17.6292057 154.51000977 17.63491821 C153.19775421 17.64901733 151.88549866 17.66311646 150.53347778 17.67764282 C149.08611714 17.66792204 147.63875992 17.65768124 146.19140625 17.64697266 C144.66184448 17.65375042 143.13229086 17.66265446 141.60275269 17.67352295 C137.45388125 17.69630444 133.30563194 17.68748504 129.15674973 17.67162752 C124.8135486 17.65896243 120.4704005 17.67071032 116.12719727 17.67855835 C108.8337244 17.68765316 101.54050473 17.67567151 94.24707031 17.65185547 C85.8166185 17.62464438 77.38677128 17.63345867 68.95633411 17.6609875 C61.71624739 17.68368245 54.47634261 17.6868768 47.2362318 17.67379415 C42.91284971 17.66600171 38.58975174 17.66495219 34.26638794 17.68147659 C30.20153651 17.69592789 26.13746402 17.68588847 22.07269669 17.65700531 C20.58157774 17.65039789 19.09039316 17.65228643 17.59930038 17.66331863 C15.56288759 17.67699561 13.52633142 17.65679705 11.48999023 17.63491821 C9.78104836 17.63209052 9.78104836 17.63209052 8.0375824 17.6292057 C4.03469378 16.80004619 2.52140814 15.15031395 0 12 C-0.48828125 8.88671875 -0.48828125 8.88671875 -0.3125 5.6875 C-0.26738281 4.61886719 -0.22226563 3.55023438 -0.17578125 2.44921875 C-0.11777344 1.64097656 -0.05976563 0.83273437 0 0 Z " fill="#F2D7C3" transform="translate(173,413)"/>
<path d="M0 0 C17.06283597 8.80466625 25.96194705 26.10184469 31.68579102 43.80249023 C37.22407889 61.62537728 38.73748646 78.91041415 38.375 97.4375 C35.735 97.4375 33.095 97.4375 30.375 97.4375 C30.36041748 96.63231934 30.34583496 95.82713867 30.33081055 94.99755859 C30.26882481 91.93682107 30.19452015 88.87666891 30.11254883 85.81640625 C30.06393606 83.86999854 30.02883243 81.92326809 29.99414062 79.9765625 C29.74651836 71.15220542 28.50650191 62.99550627 26.375 54.4375 C26.0855249 53.23101807 25.7960498 52.02453613 25.49780273 50.78149414 C22.16613229 37.28918245 15.55466915 23.22596163 4.140625 14.78515625 C-2.7427203 10.72488231 -9.80763464 10.3115797 -17.625 11.4375 C-29.00878231 15.24888434 -35.46972753 25.20095419 -40.625 35.4375 C-49.50666573 55.36123664 -50.78106887 75.96167369 -51.625 97.4375 C-53.605 97.4375 -55.585 97.4375 -57.625 97.4375 C-58.29677892 67.95386951 -53.7861511 37.56481438 -35.625 13.4375 C-35.14546875 12.76332031 -34.6659375 12.08914062 -34.171875 11.39453125 C-26.17188797 0.98075503 -12.68285316 -5.22497824 0 0 Z " fill="#4AA385" transform="translate(378.625,155.5625)"/>
<path d="M0 0 C0.60537598 0.30510498 1.21075195 0.61020996 1.83447266 0.92456055 C3.42501909 1.71445424 5.03246612 2.47054872 6.6484375 3.20703125 C9.97476728 5.1656581 11.85101193 6.77013476 14 10 C14.57501984 15.96953584 13.58487341 21.5449755 12.58544922 27.43310547 C11.90936859 31.55217883 11.33993016 35.6795636 10.78515625 39.81640625 C9.95512398 45.98173323 9.10087609 52.14269654 8.21875 58.30078125 C7.04487054 66.52237548 6.00883395 74.75651887 5 83 C0.38 83 -4.24 83 -9 83 C-9.21891279 75.39480739 -8.35591547 68.15144462 -7.3125 60.625 C-6.94664738 57.89744406 -6.58273925 55.16972151 -6.22265625 52.44140625 C-6.12620819 51.71221481 -6.02976013 50.98302338 -5.9303894 50.23173523 C-4.59291816 40.02210924 -3.42903236 29.79138799 -2.25 19.5625 C-2.13749908 18.58815002 -2.02499817 17.61380005 -1.90908813 16.60992432 C-1.27007297 11.07358534 -0.6337769 5.53694099 0 0 Z " fill="#426D20" transform="translate(50,170)"/>
<path d="M0 0 C4.26490811 1.05761851 7.98617676 2.78428709 11.94921875 4.65234375 C19.3136616 8.00183655 26.52253118 10.85301412 34.38671875 12.83984375 C35.18110352 13.04206543 35.97548828 13.24428711 36.79394531 13.45263672 C49.08133678 16.5188523 61.09527005 18.49154131 73.75708008 19.11962891 C74.71251709 19.17425293 75.6679541 19.22887695 76.65234375 19.28515625 C77.49571289 19.32141113 78.33908203 19.35766602 79.20800781 19.39501953 C81.85913741 19.93629677 82.78537682 20.68370117 84.38671875 22.83984375 C85.02883613 27.97678276 85.02883613 27.97678276 83.13793945 30.51831055 C80.89537435 32.21062965 79.77257732 32.14537688 76.9921875 31.984375 C76.12658203 31.94022461 75.26097656 31.89607422 74.36914062 31.85058594 C73.44681641 31.78516602 72.52449219 31.71974609 71.57421875 31.65234375 C70.62224609 31.59336914 69.67027344 31.53439453 68.68945312 31.47363281 C46.50604979 29.99423862 10.25381925 25.70694425 -6.61328125 8.83984375 C-7.13317956 5.54715443 -6.88639851 4.23901513 -4.98828125 1.46484375 C-2.61328125 -0.16015625 -2.61328125 -0.16015625 0 0 Z " fill="#2D4468" transform="translate(132.61328125,353.16015625)"/>
<path d="M0 0 C20.95812213 14.40139119 34.33369804 36.56159242 43 60 C39.98428869 63.10066092 36.96517035 65.91332354 33.5 68.5 C30.8427374 70.52058072 28.3679536 72.52258866 26.0625 74.9375 C25.381875 75.618125 24.70125 76.29875 24 77 C23.34 77 22.68 77 22 77 C21.92523438 75.89527344 21.85046875 74.79054688 21.7734375 73.65234375 C19.87757152 49.79255787 12.586364 26.70071932 1.6953125 5.40234375 C0 2 0 2 0 0 Z " fill="#C2DC2E" transform="translate(133,93)"/>
<path d="M0 0 C1.60404809 4.0843632 0.41414617 7.90208555 -0.41015625 12.0390625 C-2.19363575 21.85496739 -2.50606101 31.41965148 -2.4375 41.375 C-2.43645264 42.23331421 -2.43540527 43.09162842 -2.43432617 43.97595215 C-2.39728909 58.78872629 -1.08952781 73.03012508 1.6328125 87.61035156 C2 90 2 90 2 94 C-4.75532774 90.86132178 -11.0744329 86.65904599 -14.60546875 79.94921875 C-21.89584935 56.70948564 -16.83921376 31.15893909 -6 10 C-4.11019168 6.58842044 -2.13967759 3.26046109 0 0 Z " fill="#C1DB2E" transform="translate(102,103)"/>
<path d="M0 0 C5.07375 0.12375 5.07375 0.12375 10.25 0.25 C9.92 7.18 9.59 14.11 9.25 21.25 C155.44 21.25 301.63 21.25 452.25 21.25 C452.25 21.58 452.25 21.91 452.25 22.25 C392.90137692 22.2728637 333.55275392 22.29049888 274.20412738 22.30106533 C267.20550223 22.30231272 260.20687709 22.30360927 253.20825195 22.30493164 C252.51178602 22.3050624 251.81532008 22.30519316 251.09774912 22.30532788 C228.50289436 22.30959304 205.9080421 22.31710719 183.31318886 22.32629722 C159.44660783 22.33598692 135.58002856 22.3419936 111.7134456 22.34408849 C97.40744096 22.34546407 83.10144347 22.34981649 68.79544102 22.35791647 C58.99975277 22.3631819 49.20406824 22.36480476 39.40837867 22.36350138 C33.74763002 22.36285768 28.08689391 22.36387908 22.42614746 22.36920547 C17.25292283 22.3740379 12.07971928 22.37433969 6.90649372 22.37089889 C5.02627259 22.37047305 3.1460502 22.37177009 1.2658316 22.37488318 C-1.27255793 22.37884458 -3.81086937 22.37676501 -6.34925747 22.37304783 C-7.09425543 22.37567484 -7.83925339 22.37830186 -8.60682705 22.38100848 C-13.6358542 22.3641458 -13.6358542 22.3641458 -14.75 21.25 C-14.93061582 18.46377886 -15.02813098 15.7259733 -15.0625 12.9375 C-15.10600586 11.77831055 -15.10600586 11.77831055 -15.15039062 10.59570312 C-15.18931801 7.11319907 -15.05868597 4.82889803 -13.40234375 1.72265625 C-9.10828865 -0.66152457 -4.81140804 -0.16530529 0 0 Z " fill="#AFA09B" transform="translate(36.75,264.75)"/>
<path d="M0 0 C5.83539646 2.974908 9.89229998 7.20437613 12.3125 13.3125 C13.11401947 17.61155896 13.17778129 21.64435839 13 26 C5.74549076 29.87027168 -0.66017177 32.06089688 -9 31 C-14.3035228 28.29820537 -18.09832298 24.70503105 -20 19 C-20.64599138 13.50907327 -19.61150378 10.23416277 -16.546875 5.80078125 C-11.97521268 0.47871981 -6.78981325 -0.86219851 0 0 Z " fill="#2B4268" transform="translate(104,220)"/>
<path d="M0 0 C3.62578134 0.47337332 7.25046578 0.95467791 10.875 1.4375 C12.42380859 1.63956055 12.42380859 1.63956055 14.00390625 1.84570312 C15.48310547 2.04389648 15.48310547 2.04389648 16.9921875 2.24609375 C17.90339355 2.36654053 18.81459961 2.4869873 19.75341797 2.61108398 C22 3 22 3 24 4 C24.37890625 5.99609375 24.37890625 5.99609375 24.5625 8.4375 C24.8061175 11.84628205 24.8061175 11.84628205 26 15 C92.825 15.495 92.825 15.495 161 16 C161 16.33 161 16.66 161 17 C140.74654552 17.11677581 120.49315931 17.20495997 100.23943806 17.25906086 C90.83537356 17.284848 81.43151817 17.32000821 72.02758789 17.37719727 C63.83158501 17.42701669 55.63573357 17.45928731 47.43958348 17.47044247 C43.09926973 17.47696375 38.75938921 17.49230084 34.41921425 17.52865028 C30.33403598 17.56258692 26.24946943 17.57305785 22.16416359 17.56553841 C20.66493913 17.56691402 19.16569422 17.57686102 17.66659164 17.59602737 C15.6190903 17.62092117 13.57126076 17.61193888 11.52363586 17.60127258 C9.80495285 17.60818603 9.80495285 17.60818603 8.05154896 17.61523914 C4.03036765 16.80450722 2.52693898 15.16285509 0 12 C-0.48828125 8.88671875 -0.48828125 8.88671875 -0.3125 5.6875 C-0.26738281 4.61886719 -0.22226563 3.55023438 -0.17578125 2.44921875 C-0.11777344 1.64097656 -0.05976563 0.83273437 0 0 Z " fill="#B5A49B" transform="translate(173,413)"/>
<path d="M0 0 C2.97924773 1.67117642 5.58738079 3.74392931 8.25 5.875 C8.96929687 6.43058594 9.68859375 6.98617188 10.4296875 7.55859375 C13.07709136 9.61603308 15.62741438 11.62741438 18 14 C18.333728 17.13704316 18.52849028 19.16554166 16.8125 21.875 C14.32396348 23.41960888 12.90703869 23.31325848 10 23 C6.04923229 20.72638928 2.57302135 17.82263718 -1 15 C-1.83402344 14.3915625 -2.66804688 13.783125 -3.52734375 13.15625 C-5.6190973 11.53872529 -7.38846734 10.09687729 -9 8 C-9.125 4.125 -9.125 4.125 -8 1 C-5.02645269 -0.48677366 -3.32869238 -0.4218389 0 0 Z " fill="#2C4468" transform="translate(100,331)"/>
<path d="M0 0 C3.9672797 0.26448531 5.67929288 0.7934343 8.75 3.25 C11.31619697 6.67159595 11.25984054 10.09844133 10.75 14.25 C7.54520377 18.12949018 5.44366403 20.05826445 0.4375 20.625 C-3.25 20.25 -3.25 20.25 -6.125 17.875 C-9.39890672 13.83076228 -9.78202646 11.48159355 -9.25 6.25 C-6.8125 3.375 -6.8125 3.375 -4.25 1.25 C-3.25 0.25 -3.25 0.25 0 0 Z " fill="#2E4369" transform="translate(233.25,195.75)"/>
<path d="M0 0 C2.92937654 1.81310142 5.43647949 3.87295899 7 7 C7.41204834 11.63554388 6.87454146 14.30416098 4 18 C0.57840405 20.56619697 -2.84844133 20.50984054 -7 20 C-10.87949018 16.79520377 -12.80826445 14.69366403 -13.375 9.6875 C-13 6 -13 6 -10.625 3.125 C-6.86324168 0.07976707 -4.85493523 -0.56018483 0 0 Z " fill="#2C4368" transform="translate(202,204)"/>
<path d="M0 0 C3.4203866 1.17013226 3.91540482 1.87310723 6 5 C6.8371159 9.70547252 6.6691347 13.02671316 3.9375 17 C0.38205409 19.42072913 -1.69626051 20.0755042 -6 20 C-11.46835443 17.06329114 -11.46835443 17.06329114 -13 14 C-13.65157772 9.26209912 -13.65620107 6.00480788 -11 1.9375 C-6.87978546 -0.72347189 -4.85408949 -0.53934328 0 0 Z " fill="#2C4368" transform="translate(248,227)"/>
<path d="M0 0 C1.22976563 -0.02416992 1.22976563 -0.02416992 2.484375 -0.04882812 C3.27328125 -0.04947266 4.0621875 -0.05011719 4.875 -0.05078125 C5.59429687 -0.05376221 6.31359375 -0.05674316 7.0546875 -0.05981445 C9.57784751 0.42309456 10.45981395 1.28654925 12 3.3125 C12.64449271 8.46844167 12.64449271 8.46844167 10.73217773 10.97290039 C7.58145696 13.4095466 3.90054698 12.78337432 0.0625 12.75 C-0.74896484 12.76998047 -1.56042969 12.78996094 -2.39648438 12.81054688 C-6.27307062 12.80736674 -8.34971952 12.77599779 -11.5703125 10.48046875 C-13 8.3125 -13 8.3125 -12.9375 5.1875 C-10.88760031 -1.09885906 -5.52831597 -0.0217308 0 0 Z " fill="#2B4367" transform="translate(367,208.6875)"/>
<path d="M0 0 C0.87205078 -0.020625 1.74410156 -0.04125 2.64257812 -0.0625 C3.48111328 -0.06765625 4.31964844 -0.0728125 5.18359375 -0.078125 C6.33492798 -0.09214355 6.33492798 -0.09214355 7.50952148 -0.10644531 C10.10716158 0.34456605 10.97892535 1.17733929 12.5625 3.25 C12.9375 5.75 12.9375 5.75 12.5625 8.25 C10.98609654 10.30412011 10.09465192 11.14859521 7.52539062 11.63818359 C6.76419922 11.64156738 6.00300781 11.64495117 5.21875 11.6484375 C4.38472656 11.65230469 3.55070312 11.65617188 2.69140625 11.66015625 C1.39009766 11.64275391 1.39009766 11.64275391 0.0625 11.625 C-0.80503906 11.63660156 -1.67257812 11.64820313 -2.56640625 11.66015625 C-3.40042969 11.65628906 -4.23445313 11.65242187 -5.09375 11.6484375 C-6.23553711 11.64336182 -6.23553711 11.64336182 -7.40039062 11.63818359 C-9.99652265 11.14347483 -10.90893488 10.38766029 -12.4375 8.25 C-12.25 4.625 -12.25 4.625 -11.4375 1.25 C-7.91191767 -0.51279117 -3.88354409 0.02286119 0 0 Z " fill="#294267" transform="translate(368.4375,229.75)"/>
<path d="M0 0 C2.8992226 0.46761655 3.86675182 0.86675182 6 3 C6 3.99 6 4.98 6 6 C3.125 6.625 3.125 6.625 0 7 C-0.66 6.34 -1.32 5.68 -2 5 C-1.46428571 1.46428571 -1.46428571 1.46428571 0 0 Z " fill="#666F83" transform="translate(98,232)"/>
<path d="M0 0 C1.77226453 0.28284018 3.542788 0.57660498 5.3125 0.875 C6.29863281 1.03742188 7.28476563 1.19984375 8.30078125 1.3671875 C11 2 11 2 14 4 C12.04082341 3.9131252 10.08258129 3.80495488 8.125 3.6875 C6.48917969 3.60048828 6.48917969 3.60048828 4.8203125 3.51171875 C3.88960937 3.34285156 2.95890625 3.17398437 2 3 C1.34 2.01 0.68 1.02 0 0 Z " fill="#BA7E72" transform="translate(175,399)"/>
</svg>
